<svg xmlns="http://www.w3.org/2000/svg" xml:space="preserve" viewBox="0 0 586 358"><style>.st0{fill:#fff}.st2{fill:#599af2}.st5{fill:#ef929c}.st10,.st6,.st8{opacity:.54;fill:#ef929c}.st10,.st8{opacity:.5}.st10{opacity:.43}.st11{fill:none;stroke:#fff;stroke-linecap:round;stroke-miterlimit:10}.st12{opacity:.58;fill:#fff}.st13{fill:#3e479b}.st14{opacity:.8;fill:#599af2}.st15{fill:#4c65ba}.st16{opacity:.55;fill:#fff}.st17{fill:#373449}.st19,.st24{fill:none;stroke:#fff;stroke-width:2;stroke-linecap:round;stroke-miterlimit:10}.st24{stroke:#4c65ba}.st29{fill:#f9dcd2}.st31{opacity:.31;fill:none;stroke:#ecf1f7;stroke-linecap:round;stroke-miterlimit:10}</style><g id="OBJECTS"><path d="M180.3 123h-14c-2.9 0-5.2-2.3-5.2-5.2V107c-3.7-1-7.3-2.5-10.6-4.4l-7.6 7.6c-2 2-5.3 2-7.4 0l-9.9-9.9c-2-2-2-5.3 0-7.4l7.6-7.6c-1.9-3.4-3.4-6.9-4.4-10.6H118c-2.9 0-5.2-2.3-5.2-5.2v-14c0-2.9 2.3-5.2 5.2-5.2h10.8c1-3.7 2.5-7.3 4.4-10.6l-7.6-7.6c-2-2-2-5.3 0-7.4l9.9-9.9c2-2 5.3-2 7.4 0l7.6 7.6c3.4-1.9 6.9-3.4 10.6-4.4V7.2c0-2.9 2.3-5.2 5.2-5.2h14c2.9 0 5.2 2.3 5.2 5.2V18c3.7 1 7.3 2.5 10.6 4.4l7.6-7.6c2-2 5.3-2 7.4 0l9.9 9.9c2 2 2 5.3 0 7.4l-7.6 7.6c1.9 3.4 3.4 6.9 4.4 10.6h10.8c2.9 0 5.2 2.3 5.2 5.2v14c0 2.9-2.3 5.2-5.2 5.2h-10.8c-1 3.7-2.5 7.3-4.4 10.6l7.6 7.6c2 2 2 5.3 0 7.4l-9.9 9.9c-2 2-5.3 2-7.4 0l-7.6-7.6c-3.4 1.9-6.9 3.4-10.6 4.4v10.8c.1 2.8-2.3 5.2-5.2 5.2m-30.1-23.4.8.5c3.7 2.2 7.6 3.8 11.7 4.9l.9.2v12.6c0 1.6 1.3 2.8 2.8 2.8h14c1.6 0 2.8-1.3 2.8-2.8v-12.6l.9-.2c4.1-1 8-2.7 11.7-4.9l.8-.5 8.9 8.9c1.1 1.1 2.9 1.1 4 0l9.9-9.9c1.1-1.1 1.1-2.9 0-4l-8.9-8.9.5-.8c2.2-3.7 3.8-7.6 4.9-11.7l.2-.9h12.6c1.6 0 2.8-1.3 2.8-2.8v-14c0-1.6-1.3-2.8-2.8-2.8H216l-.2-.9c-1-4.1-2.7-8-4.9-11.7l-.5-.8 8.9-8.9c1.1-1.1 1.1-2.9 0-4l-9.9-9.9c-1.1-1.1-2.9-1.1-4 0l-8.9 8.9-.8-.5c-3.7-2.2-7.6-3.8-11.7-4.9l-.9-.2V7.2c0-1.6-1.3-2.8-2.8-2.8h-14c-1.6 0-2.8 1.3-2.8 2.8v12.6l-.9.2c-4.1 1-8 2.7-11.7 4.9l-.8.5-8.9-8.9c-1.1-1.1-2.9-1.1-4 0l-9.9 9.9c-1.1 1.1-1.1 2.9 0 4l8.9 8.9-.5.8c-2.2 3.7-3.8 7.6-4.9 11.7l-.2.9H118c-1.6 0-2.8 1.3-2.8 2.8v14c0 1.6 1.3 2.8 2.8 2.8h12.6l.2.9c1 4.1 2.7 8 4.9 11.7l.5.8-8.9 8.9c-1.1 1.1-1.1 2.9 0 4l9.9 9.9c1.1 1.1 2.9 1.1 4 0zm23.2-4.1c-18.2 0-33-14.8-33-33s14.8-33 33-33 33 14.8 33 33-14.8 33-33 33m0-63.6c-16.9 0-30.6 13.7-30.6 30.6s13.7 30.6 30.6 30.6S204 79.4 204 62.5s-13.8-30.6-30.6-30.6M160.8 156.9l-5.8-3.2c.6-2.4.9-4.9.8-7.4l6.4-1.9c1.2-.4 1.9-1.6 1.5-2.8l-2.3-7.6c-.4-1.2-1.6-1.9-2.8-1.5l-6.4 1.9c-1.2-2.1-2.8-4-4.7-5.7l3.2-5.8c.6-1.1.2-2.5-.9-3.1l-7-3.8c-1.1-.6-2.5-.2-3.1.9l-3.2 5.8c-2.4-.6-4.9-.9-7.4-.8l-1.9-6.4c-.4-1.2-1.6-1.9-2.8-1.5l-7.6 2.3c-1.2.4-1.9 1.6-1.5 2.8l1.9 6.4c-2.1 1.2-4 2.8-5.7 4.7l-5.8-3.2c-1.1-.6-2.5-.2-3.1.9l-3.8 7c-.6 1.1-.2 2.5.9 3.1l5.8 3.2c-.6 2.4-.9 4.9-.8 7.4l-6.4 1.9c-1.2.4-1.9 1.6-1.5 2.8l2.3 7.6c.4 1.2 1.6 1.9 2.8 1.5l6.4-1.9c1.2 2.1 2.8 4 4.7 5.7l-3.2 5.8c-.6 1.1-.2 2.5.9 3.1l7 3.8c1.1.6 2.5.2 3.1-.9l3.2-5.8c2.4.6 4.9.9 7.4.8l1.9 6.4c.4 1.2 1.6 1.9 2.8 1.5l7.6-2.3c1.2-.4 1.9-1.6 1.5-2.8l-1.9-6.4c2.1-1.2 4-2.8 5.7-4.7l5.8 3.2c1.1.6 2.5.2 3.1-.9l3.8-7c.6-1.1.2-2.5-.9-3.1m-39.2 6.4c-8.8-4.7-12-15.7-7.3-24.5s15.7-12 24.5-7.3 12 15.7 7.3 24.5c-4.8 8.8-15.8 12.1-24.5 7.3" class="st0"/><path d="m116.1 103.6-4.5-2.4q.75-2.85.6-5.7L117 94c.9-.3 1.5-1.3 1.2-2.2l-1.7-5.8c-.3-.9-1.3-1.5-2.2-1.2l-4.9 1.5c-1-1.6-2.2-3.1-3.6-4.4l2.4-4.5c.5-.9.1-1.9-.7-2.4l-5.4-2.9c-.9-.5-1.9-.1-2.4.7l-2.4 4.5q-2.85-.75-5.7-.6l-1.5-4.9c-.3-.9-1.3-1.5-2.2-1.2l-5.8 1.7c-.9.3-1.5 1.3-1.2 2.2l1.5 4.9c-1.6 1-3.1 2.2-4.4 3.6l-4.5-2.4c-.9-.5-1.9-.1-2.4.7l-2.9 5.4c-.5.9-.1 1.9.7 2.4l4.5 2.4q-.75 2.85-.6 5.7L68 98.6c-.9.3-1.5 1.3-1.2 2.2l1.7 5.8c.3.9 1.3 1.5 2.2 1.2l4.9-1.5c1 1.6 2.2 3.1 3.6 4.4l-2.4 4.5c-.5.9-.1 1.9.7 2.4l5.4 2.9c.9.5 1.9.1 2.4-.7l2.4-4.5q2.85.75 5.7.6l1.5 4.9c.3.9 1.3 1.5 2.2 1.2l5.8-1.7c.9-.3 1.5-1.3 1.2-2.2l-1.5-4.9c1.6-1 3.1-2.2 4.4-3.6l4.5 2.4c.9.5 1.9.1 2.4-.7l2.9-5.4c.4-.8.1-1.9-.7-2.3m-30.2 4.9c-6.7-3.7-9.3-12.1-5.6-18.8s12.1-9.3 18.8-5.6 9.3 12.1 5.6 18.8c-3.6 6.8-12.1 9.3-18.8 5.6" class="st2" style="opacity:.36"/><g style="opacity:.18"><path d="m287 40.5-5.5-3c.6-2.3.8-4.7.7-7l6-1.8c1.1-.3 1.8-1.6 1.5-2.7l-2.1-7.2c-.3-1.1-1.6-1.8-2.7-1.5l-6 1.8c-1.2-2-2.7-3.8-4.4-5.4l3-5.5c.6-1.1.2-2.4-.9-2.9L270 1.7c-1.1-.6-2.4-.2-2.9.9l-3 5.5c-2.3-.6-4.7-.8-7-.7l-1.8-6c-.3-1.1-1.6-1.8-2.7-1.5L245.4 2c-1.1.3-1.8 1.6-1.5 2.7l1.8 6c-2 1.2-3.8 2.7-5.4 4.4l-5.5-3c-1.1-.6-2.4-.2-2.9.9l-3.6 6.6c-.6 1.1-.2 2.4.9 2.9l5.5 3c-.6 2.3-.8 4.7-.7 7l-6 1.8c-1.1.3-1.8 1.6-1.5 2.7l2.1 7.2c.3 1.1 1.6 1.8 2.7 1.5l6-1.8c1.2 2 2.7 3.8 4.4 5.4l-3 5.5c-.6 1.1-.2 2.4.9 2.9l6.6 3.6c1.1.6 2.4.2 2.9-.9l3-5.5c2.3.6 4.7.8 7 .7l1.8 6c.3 1.1 1.6 1.8 2.7 1.5l7.2-2.1c1.1-.3 1.8-1.6 1.5-2.7l-1.8-6c2-1.2 3.8-2.7 5.4-4.4l5.5 3c1.1.6 2.4.2 2.9-.9l3.6-6.6c.5-1 .1-2.4-.9-2.9zm-37.2 6.1c-8.3-4.5-11.4-14.9-6.9-23.2s14.9-11.4 23.2-6.9 11.4 14.9 6.9 23.2-14.9 11.4-23.2 6.9z" style="fill:none;stroke:#4c65ba;stroke-miterlimit:10"/></g><path d="M195.6 302.5H40.9c-4.6 0-8.4-3.8-8.4-8.4V185.7c0-4.6 3.8-8.4 8.4-8.4h154.7c4.6 0 8.4 3.8 8.4 8.4v108.4c0 4.6-3.8 8.4-8.4 8.4" class="st0"/><path d="M32.5 211.9v-28.2c0-3.5 2.8-6.4 6.4-6.4h158.8c3.5 0 6.4 2.8 6.4 6.4v27.6zM45.8 218.6h19v15.2h-19z" class="st5"/><path d="M45.8 245.2h19v15.2h-19zM45.8 271h19v15.2h-19zM78.4 218.6h19v15.2h-19z" class="st6"/><path d="M78.4 245.2h19v15.2h-19z" class="st5"/><path d="M78.4 271h19v15.2h-19z" class="st6"/><g style="opacity:.98"><path d="M110.3 218.6h19v15.2h-19zM110.3 245.2h19v15.2h-19z" class="st8"/><path d="M110.3 271h19v15.2h-19z" class="st5"/></g><g style="opacity:.54"><path d="M142.9 218.6h19v15.2h-19zM142.9 245.2h19v15.2h-19zM142.9 271h19v15.2h-19z" class="st5"/></g><path d="M174 218.6h19v15.2h-19z" class="st10"/><path d="M174 245.2h19v15.2h-19z" class="st5"/><path d="M174 271h19v15.2h-19z" class="st10"/><circle cx="89" cy="226" r="6" class="st11"/><path d="m86.2 221.5 5.1 8.5M93 223.2l-8.5 5.1" class="st11"/><circle cx="53.5" cy="190.2" r="7.6" class="st12"/><path d="M53.5 192.9c-1.8 0-3.3-1.5-3.3-3.3v-21.9c0-1.8 1.5-3.3 3.3-3.3s3.3 1.5 3.3 3.3v21.9c0 1.8-1.5 3.3-3.3 3.3" class="st13"/><circle cx="76" cy="190.2" r="7.6" class="st12"/><path d="M76 192.9c-1.8 0-3.3-1.5-3.3-3.3v-21.9c0-1.8 1.5-3.3 3.3-3.3s3.3 1.5 3.3 3.3v21.9c0 1.8-1.5 3.3-3.3 3.3" class="st13"/><circle cx="97.2" cy="190.2" r="7.6" class="st12"/><path d="M97.2 192.9c-1.8 0-3.3-1.5-3.3-3.3v-21.9c0-1.8 1.5-3.3 3.3-3.3s3.3 1.5 3.3 3.3v21.9c0 1.8-1.5 3.3-3.3 3.3" class="st13"/><circle cx="119.6" cy="190.2" r="7.6" class="st12"/><path d="M119.6 192.9c-1.8 0-3.3-1.5-3.3-3.3v-21.9c0-1.8 1.5-3.3 3.3-3.3s3.3 1.5 3.3 3.3v21.9c.1 1.8-1.4 3.3-3.3 3.3" class="st13"/><circle cx="140.8" cy="190.2" r="7.6" class="st12"/><path d="M140.8 192.9c-1.8 0-3.3-1.5-3.3-3.3v-21.9c0-1.8 1.5-3.3 3.3-3.3s3.3 1.5 3.3 3.3v21.9c0 1.8-1.5 3.3-3.3 3.3" class="st13"/><circle cx="163.2" cy="190.2" r="7.6" class="st12"/><path d="M163.2 192.9c-1.8 0-3.3-1.5-3.3-3.3v-21.9c0-1.8 1.5-3.3 3.3-3.3s3.3 1.5 3.3 3.3v21.9c.1 1.8-1.4 3.3-3.3 3.3" class="st13"/><circle cx="184.4" cy="190.2" r="7.6" class="st12"/><path d="M184.4 192.9c-1.8 0-3.3-1.5-3.3-3.3v-21.9c0-1.8 1.5-3.3 3.3-3.3s3.3 1.5 3.3 3.3v21.9c.1 1.8-1.4 3.3-3.3 3.3" class="st13"/><ellipse cx="136.2" cy="302.1" class="st2" rx="44.6" ry="45.1"/><ellipse cx="136.2" cy="302.1" class="st0" rx="34.3" ry="34.7"/><path d="M136.9 299.7h-1.5c-.5 0-.9-.4-.9-.9V277c0-.5.4-.9.9-.9h1.5c.5 0 .9.4.9.9v21.8c0 .4-.4.9-.9.9M136.3 303.5V302c0-.5.4-.9.9-.9h17.1c.5 0 .9.4.9.9v1.5c0 .5-.4.9-.9.9h-17.1c-.5 0-.9-.4-.9-.9" class="st2"/><path d="M141.2 302.1c0 2.8-2.2 5-5 5s-5-2.3-5-5c0-2.8 2.2-5 5-5 2.7 0 5 2.3 5 5" class="st13"/><path d="M40.9 130.1H1.6c-.9 0-1.6.7-1.6 1.6v28.7c0 .9.7 1.6 1.6 1.6h39.2c.9 0 1.6-.7 1.6-1.6v-28.8c.1-.8-.6-1.5-1.5-1.5" class="st0"/><path d="m16.5 144.4 4.3 2.3c.3.1.6.1.8 0l19.1-11.2 1.4-.8c.1-.1.2-.1.3-.1v-2.7c0-.9-.7-1.6-1.6-1.6H1.6c-.9 0-1.6.7-1.6 1.6v4.2l1 .5zM0 138v20.3l15.2-12.5zM42.5 158.4v-21.9l-15.4 9z" class="st14"/><path d="m41.5 159.9-16-13.4-2.9 1.7c-.4.2-.9.4-1.3.4s-.9-.1-1.2-.3l-3-1.6c0 .1-.1.1-.1.2l-16.1 13c-.2.1-.4.2-.6.2-.1 0-.2 0-.3-.1v.3c0 .9.7 1.6 1.6 1.6h39.2c.9 0 1.6-.7 1.6-1.6v-.3c-.1.1-.3.1-.5.1-.1.1-.3 0-.4-.2" class="st14"/><path d="M42.5 134.4c-.1 0-.2.1-.3.1l-1.4.8-19.1 11.2c-.3.1-.6.1-.8 0l-4.3-2.3L1 136.5l-1-.5v2.1l15.2 7.7L0 158.3v1.8c.1 0 .2.1.3.1.2 0 .4-.1.6-.2l15.9-13.1c.1 0 .1-.1.1-.2l3 1.6q.6.3 1.2.3c.5 0 .9-.1 1.3-.4l2.9-1.7 16 13.4c.2.1.4.2.6.2s.3-.1.5-.1v-1.6L27 145.5l15.4-9.1v-2z" class="st15"/><circle cx="282" cy="202" r="156" class="st13"/><circle cx="282" cy="202" r="141.8" class="st16"/><circle cx="282" cy="202" r="127.3" class="st0"/><path d="M281.9 103.4h-.3c-1.8 0-3.3-1.5-3.3-3.3V83.6c0-1.8 1.5-3.3 3.3-3.3h.3c1.8 0 3.3 1.5 3.3 3.3v16.6c0 1.8-1.5 3.2-3.3 3.2M282.3 323.7h-.3c-1.8 0-3.3-1.5-3.3-3.3v-16.6c0-1.8 1.5-3.3 3.3-3.3h.3c1.8 0 3.3 1.5 3.3 3.3v16.6c.1 1.9-1.4 3.3-3.3 3.3M380.6 201.9v-.3c0-1.8 1.5-3.3 3.3-3.3h16.6c1.8 0 3.3 1.5 3.3 3.3v.3c0 1.8-1.5 3.3-3.3 3.3h-16.6c-1.9 0-3.3-1.5-3.3-3.3M160.3 202.3v-.3c0-1.8 1.5-3.3 3.3-3.3h16.6c1.8 0 3.3 1.5 3.3 3.3v.3c0 1.8-1.5 3.3-3.3 3.3h-16.6c-1.9.1-3.3-1.4-3.3-3.3M354.7 129.2l-.2-.2a3.32 3.32 0 0 1 0-4.7l6.1-6.1c1.3-1.3 3.4-1.3 4.7 0l.2.2c1.3 1.3 1.3 3.4 0 4.7l-6.1 6.1c-1.3 1.2-3.4 1.2-4.7 0M198.6 285.9l-.2-.2a3.32 3.32 0 0 1 0-4.7l7.4-7.4c1.3-1.3 3.4-1.3 4.7 0l.2.2c1.3 1.3 1.3 3.4 0 4.7l-7.4 7.4a3.32 3.32 0 0 1-4.7 0M354.8 274.8l.2-.2c1.3-1.3 3.4-1.3 4.7 0l6.1 6.1c1.3 1.3 1.3 3.4 0 4.7l-.2.2a3.32 3.32 0 0 1-4.7 0l-6.1-6.1c-1.2-1.3-1.2-3.4 0-4.7M198.1 118.7l.2-.2c1.3-1.3 3.4-1.3 4.7 0l7.4 7.4c1.3 1.3 1.3 3.4 0 4.7l-.2.2a3.32 3.32 0 0 1-4.7 0l-7.4-7.4a3.32 3.32 0 0 1 0-4.7" class="st17"/><path d="M282.1 204h-.3c-2 0-3.7-1.6-3.7-3.7v-79.9c0-2 1.6-3.7 3.7-3.7h.3c2 0 3.7 1.6 3.7 3.7v79.9c-.1 2-1.7 3.7-3.7 3.7" class="st13"/><path d="M278.2 207v-.3c0-2 1.6-3.7 3.7-3.7h55.3c2 0 3.7 1.6 3.7 3.7v.3c0 2-1.6 3.7-3.7 3.7h-55.3c-2.1-.1-3.7-1.7-3.7-3.7" class="st13"/><path d="m339.3 150.4-56.9 51.2" style="fill:none;stroke:#373449;stroke-width:2;stroke-linecap:round;stroke-miterlimit:10"/><circle cx="282" cy="202" r="13.8" class="st15"/><path d="M574.5 286.4v8.2c0 3.1-2.5 5.6-5.6 5.6h-19.7M521.8 234h8.2c3.1 0 5.6 2.5 5.6 5.6v19.7" class="st19"/><path d="M468.8 314h79.4c.9 0 1.7-.8 1.7-1.7v-51c0-.9-.8-1.7-1.7-1.7h-79.4c-.9 0-1.7.8-1.7 1.7v51c0 .9.8 1.7 1.7 1.7" class="st0"/><path d="M468.8 314h79.4c.9 0 1.7-.8 1.7-1.7v-51c0-.9-.8-1.7-1.7-1.7h-79.4c-.9 0-1.7.8-1.7 1.7v51c0 .9.8 1.7 1.7 1.7" style="opacity:.66;fill:#599af2"/><path d="M479.8 284.9h57.4c.7 0 1.2-.6 1.2-1.2v-12.1c0-.7-.6-1.2-1.2-1.2h-57.4c-.7 0-1.2.6-1.2 1.2v12.1c0 .6.6 1.2 1.2 1.2M479.4 291.9h58.2c.5 0 .8-.4.8-.8 0-.5-.4-.8-.8-.8h-58.2c-.5 0-.8.4-.8.8s.4.8.8.8M479.4 296.5h58.2c.5 0 .8-.4.8-.8 0-.5-.4-.8-.8-.8h-58.2c-.5 0-.8.4-.8.8s.4.8.8.8M479.4 301.6h58.2c.5 0 .8-.4.8-.8 0-.5-.4-.8-.8-.8h-58.2c-.5 0-.8.4-.8.8s.4.8.8.8M479.4 306.2h58.2c.5 0 .8-.4.8-.8 0-.5-.4-.8-.8-.8h-58.2c-.5 0-.8.4-.8.8 0 .5.4.8.8.8M565.5 287.2h18.8c.9 0 1.7-.8 1.7-1.7v-11.9c0-.9-.8-1.7-1.7-1.7h-18.8c-.9 0-1.7.8-1.7 1.7v11.9c0 .9.7 1.7 1.7 1.7" class="st0"/><path d="M565.5 287.2h18.8c.9 0 1.7-.8 1.7-1.7v-11.9c0-.9-.8-1.7-1.7-1.7h-18.8c-.9 0-1.7.8-1.7 1.7v11.9c0 .9.7 1.7 1.7 1.7" style="opacity:.58;fill:#ef929c"/><g style="opacity:.68"><path d="M519.5 244.1H416.7c-.9 0-1.7-.8-1.7-1.7v-64.9c0-.9.8-1.7 1.7-1.7h102.8c.9 0 1.7.8 1.7 1.7v64.9c0 1-.8 1.7-1.7 1.7" class="st15" style="opacity:.89"/><path d="M504.4 193H429c-.3 0-.5-.2-.5-.5s.2-.5.5-.5h75.5c.3 0 .5.2.5.5-.1.3-.3.5-.6.5M459.8 213.3H429c-.3 0-.5-.2-.5-.5s.2-.5.5-.5h30.9c.3 0 .5.2.5.5-.1.3-.3.5-.6.5M459.8 225.4H429c-.3 0-.5-.2-.5-.5s.2-.5.5-.5h30.9c.3 0 .5.2.5.5-.1.3-.3.5-.6.5M468.4 201.1H429c-.3 0-.5-.2-.5-.5s.2-.5.5-.5h39.4c.3 0 .5.2.5.5s-.2.5-.5.5M503.6 201.3h-27.5c-.4 0-.8-.3-.8-.6s.4-.6.8-.6h27.5c.4 0 .8.3.8.6s-.3.6-.8.6M503.1 230.4h-34.3c-1.1 0-2-.9-2-2v-19.5c0-1.1.9-2 2-2h34.3c1.1 0 2 .9 2 2v19.5c0 1.1-.9 2-2 2" class="st0"/><path d="m470.9 223.7 2.1-6.3c.2-.5.8-.6 1.2-.3l5.8 6.3c.4.4 1 .3 1.2-.2l3.5-9.5c.2-.5.9-.6 1.2-.2l7.9 10c.3.4.9.3 1.1-.1l6.9-10.9" class="st24"/><path d="m499.6 212.9 2.4-.7v2.5" class="st24"/></g><g style="opacity:.77"><path d="m510 144.7-3.6-1.9c.4-1.4.5-2.9.4-4.4l3.9-1.1c.7-.2 1.1-1 .9-1.7l-1.5-4.5c-.2-.7-1-1.1-1.8-.9l-3.9 1.1c-.8-1.3-1.8-2.4-2.9-3.5l1.9-3.4c.4-.7.1-1.5-.6-1.9l-4.3-2.3c-.7-.4-1.5-.1-1.9.5l-1.9 3.4c-1.5-.4-3-.6-4.5-.5l-1.2-3.8c-.2-.7-1-1.1-1.8-.9l-4.6 1.3c-.7.2-1.1 1-.9 1.7l1.2 3.8c-1.3.7-2.4 1.6-3.4 2.7l-3.6-1.9c-.7-.4-1.5-.1-1.9.5l-2.2 4.1c-.4.7-.1 1.5.6 1.9l3.6 1.9c-.4 1.4-.5 2.9-.4 4.4l-3.9 1.1c-.7.2-1.1 1-.9 1.7l1.5 4.5c.2.7 1 1.1 1.8.9l3.9-1.1c.8 1.3 1.8 2.4 2.9 3.5l-1.9 3.4c-.4.7-.1 1.5.6 1.9l4.3 2.3c.7.4 1.5.1 1.9-.5l1.9-3.4c1.5.4 3 .6 4.5.5l1.2 3.8c.2.7 1 1.1 1.8.9l4.6-1.3c.7-.2 1.1-1 .9-1.7l-1.2-3.8c1.3-.7 2.4-1.6 3.4-2.7l3.6 1.9c.7.4 1.5.1 1.9-.5l2.2-4.1c.3-.7 0-1.6-.6-1.9m-23.8 3.3c-5.4-2.9-7.5-9.5-4.7-14.6 2.8-5.2 9.4-7 14.8-4.1s7.5 9.5 4.7 14.6c-2.8 5.3-9.5 7.1-14.8 4.1" style="opacity:.39;fill:#599af2"/></g><path d="m542.8 91.9-5.8-3.2c.6-2.4.9-4.9.8-7.4l6.4-1.9c1.2-.4 1.9-1.6 1.5-2.8l-2.3-7.6c-.4-1.2-1.6-1.9-2.8-1.5l-6.4 1.9c-1.2-2.1-2.8-4-4.7-5.7l3.2-5.8c.6-1.1.2-2.5-.9-3.1l-7-3.8c-1.1-.6-2.5-.2-3.1.9l-3.2 5.8c-2.4-.6-4.9-.9-7.4-.8l-1.9-6.4c-.4-1.2-1.6-1.9-2.8-1.5l-7.6 2.3c-1.2.4-1.9 1.6-1.5 2.8l1.9 6.4c-2.1 1.2-4 2.8-5.7 4.7l-5.8-3.2c-1.1-.6-2.5-.2-3.1.9l-3.8 7c-.6 1.1-.2 2.5.9 3.1l5.8 3.2c-.6 2.4-.9 4.9-.8 7.4l-6.4 1.9c-1.2.4-1.9 1.6-1.5 2.8l2.3 7.6c.4 1.2 1.6 1.9 2.8 1.5l6.4-1.9c1.2 2.1 2.8 4 4.7 5.7l-3.2 5.8c-.6 1.1-.2 2.5.9 3.1l7 3.8c1.1.6 2.5.2 3.1-.9l3.2-5.8c2.4.6 4.9.9 7.4.8l1.9 6.4c.4 1.2 1.6 1.9 2.8 1.5l7.6-2.3c1.2-.4 1.9-1.6 1.5-2.8l-1.9-6.4c2.1-1.2 4-2.8 5.7-4.7l5.8 3.2c1.1.6 2.5.2 3.1-.9l3.8-7c.6-1.1.2-2.5-.9-3.1m-39.2 6.4c-8.8-4.7-12-15.7-7.3-24.5s15.7-12 24.5-7.3 12 15.7 7.3 24.5c-4.8 8.8-15.8 12.1-24.5 7.3" class="st0" style="opacity:.39"/><path d="M429 19.7h26.3v15.2H429z" class="st13"/><path d="M457.5 24.4h-30.8c-1.1 0-2-.9-2-2V16c0-1.1.9-2 2-2h30.8c1.1 0 2 .9 2 2v6.5c0 1.1-.9 1.9-2 1.9" class="st15"/><ellipse cx="442.1" cy="95.4" class="st5" rx="62.9" ry="63.6"/><ellipse cx="442.1" cy="95.4" class="st0" rx="48.3" ry="48.9"/><path d="M485.3 116.8c-7.8 16.3-24.4 27.5-43.5 27.5-18.6 0-34.8-10.6-42.8-26.2-1.8-3.4 19.6-22.4 41.9-22.7 22.4-.3 45.9 18.1 44.4 21.4" style="opacity:.81;fill:#ecf1f7"/><path d="M469.1 127.1c-4.9 10.2-15.2 17.2-27.1 17.2-11.6 0-21.7-6.6-26.7-16.4-1.1-2.1 12.2-14 26.2-14.2 13.9-.2 28.5 11.4 27.6 13.4" class="st16"/><path d="M443.6 91.9h-2.9c-.5 0-.9-.4-.9-.9V59.5c0-.5.4-.9.9-.9h2.9c.5 0 .9.4.9.9V91c0 .4-.4.9-.9.9" class="st5"/><ellipse cx="442.1" cy="95.4" class="st13" rx="7" ry="7.1"/><path d="M544.9 135h-25.8c-.6 0-1.1.5-1.1 1.1v19c0 .6.5 1.1 1.1 1.1h25.8c.6 0 1.1-.5 1.1-1.1v-18.9c0-.7-.5-1.2-1.1-1.2" class="st0"/><path d="m528.9 144.4 2.8 1.5c.2.1.4.1.5 0l12.6-7.4.9-.6c.1 0 .1-.1.2-.1V136c0-.6-.5-1.1-1.1-1.1H519c-.6 0-1.1.5-1.1 1.1v2.8l.7.3zM518 140.2v13.4l10-8.3zM546 153.7v-14.5l-10.1 5.9z" class="st14"/><path d="m545.3 154.6-10.5-8.8-1.9 1.1c-.3.2-.6.2-.9.2s-.6-.1-.8-.2l-2-1-.1.1-10.5 8.6c-.1.1-.2.1-.4.1h-.2v.2c0 .6.5 1.1 1.1 1.1h25.8c.6 0 1.1-.5 1.1-1.1v-.2c-.1.1-.2.1-.3.1-.2 0-.3-.1-.4-.2" class="st14"/><path d="M546 137.8c-.1 0-.1 0-.2.1l-.9.6-12.6 7.4c-.2.1-.4.1-.5 0l-2.8-1.5-10.2-5.2-.7-.3v1.4l10 5.1-10 8.3v1.2h.2c.1 0 .3 0 .4-.1l10.5-8.6.1-.1 2 1c.3.1.5.2.8.2s.6-.1.9-.2l1.9-1.1 10.5 8.8c.1.1.3.1.4.1s.2 0 .3-.1v-1l-10.1-8.5 10.1-6v-1.5z" class="st15"/><path d="M414.8 348.1h.2v1.6l-17.6.3v-1.2c0-.2.1-.3.3-.4h.1zM408.7 342.2l5.3-.1c.1 0 .3 0 .4.1l.1.1c.1.1.2.3.2.4v.6l.1 2 .1 2.7-17 .2h-.1c.4-1.2 1.4-2.2 2.6-2.5l3.9-.3c.9-.5 1.7-.9 2.6-1.4l1.6-1.9h.2c-.1.1-.1.1 0 .1M441.3 348.2h.2v1.6l-17.6.1v-1.2c0-.2.1-.3.3-.4h.1zM435.2 342.2h5.3c.1 0 .3 0 .4.1l.1.1c.1.1.1.3.2.4v.6l.1 2 .1 2.7-17 .1h-.1c.4-1.2 1.4-2.2 2.6-2.5l3.9-.3c.9-.5 1.7-.9 2.6-1.3l1.6-1.9h.2q-.15 0 0 0" class="st17"/><path d="M348 143c.2-.6.8-.9 1.3-.7l1 .3v-.1l-1.5-.4c-.7-.2-1.2-.9-.9-1.5.5-1.3 1.6-.8 2.2-.6l.8.3s-1.4-.5-1.4-.6c-.2-.2-.3-.5-.2-.8.1-.6.6-1 1.2-.9l3.8.6c2.3.2 5.2.6 6.6 1l-1.4-3.1c-.3-.7 0-1.5.7-1.8s1.5 0 1.8.7l2.5 5.5c.4.6.7 1.1.8 1.3.2.8 2.3 5 2.3 5l-5.1 1.7s-7.7-2.4-10.9-3.6l-2.7-.8c-.7-.3-1.1-.9-.9-1.5" class="st29"/><path d="M360.9 139.6q-.15-.15-.3 0c-.7.6-1.1 1.3-1.1 2 0 1.2 1 2.1 1 2.2q.15.15.3 0t0-.3s-.9-.8-.9-1.9c0-.6.3-1.2.9-1.7.1-.1.2-.3.1-.3" style="fill:#ffa06e"/><path d="M425.3 169.2h-9.4c-3.7 0-7.6 1.7-11 4.1-5.6-.4-12.7-1-14-2-2.1-1.6-19.2-22-23-26.5-.4-.5-1.1-.6-1.6-.2l-4.7 3.6c-.5.4-.6 1.1-.3 1.6 3.4 5.3 19.9 31 22.5 32.6 1.1.7 7 2.8 13.7 5.2l1.4 8.4c2.2 12.7 2.6 25.5 1.4 38.3l-.7 7.1c0 .5-.5 1 0 1h41.2c.6 0-2.6-14.7-2.6-15.3l5.9-40.8c1.2-10.6-9.2-17.1-18.8-17.1" class="st5"/><path d="M364.8 198.8c-.1-.4.2-.8.6-.8h4.7l-5.5-.7c-.3 0-.6-.3-.6-.6v-.1c0-.3.3-.6.6-.6l5.4.2-4.5-.8c-.4-.1-.6-.4-.5-.7v-.1c.1-.3.3-.5.7-.5l4.3.5h.1l3.3-.1c.5 0 .8-.6.4-1l-1.7-2.1c-.2-.3-.2-.6.1-.8l.1-.1c.2-.2.6-.2.8 0l3.5 2.4c1.9 1.2 2.8 2.2 3.2 3l-.5 6.4h-.1c-2.2.1-8.1-.5-8.6-.5h-3.7c-.4 0-.7-.3-.7-.7 0-.3.2-.5.5-.5l3.2-.5-4.7-.4c-.3 0-.5-.2-.6-.5z" class="st29"/><path d="M439.1 176.5c-2.9-2.2-7.1-1.8-9.6.8-2.3 2.4-12.1 14.3-14.6 14.9-2.6.6-29.2 1.8-35 2.1-.6 0-1.1.5-1.1 1.2l-.1 5.9c0 .6.5 1.1 1.1 1.2 6.2.5 36.7 3.1 39.6 2 1.5-.6 11.3-6.9 19.4-12.2 5.6-3.7 5.9-11.8.5-15.8-.1 0-.2 0-.2-.1" class="st5"/><path d="M379.8 202.7c6.2.5 36.7 3.1 39.6 2 .7-.3 3.1-1.7 6.3-3.8M439.1 176.5c-2.9-2.2-7.1-1.8-9.6.8q0 0 0 0c-2.3 2.4-12.1 14.3-14.6 14.9-2.6.6-29.2 1.8-35 2.1" class="st31"/><path d="M400 230.1c0-1.2 1-1.2 2.2-1.2l34.9-.9c1.2 0 2.3.8 2.4 2 0 0 1.9 15.2 2 22.1l.6 89.2c0 1.3-1.1 2.4-2.4 2.4h-7.4c-1.4 0-2.6-1.1-2.7-2.5l-7.3-78.4c-.1-1.2-1.1-2.1-2.2-2.1-1.2 0-2.2 1-2.2 2.2l-2.3 78.7c0 1.1-.9 2-2 2h-7.4c-1.1 0-1.9-.8-2-1.9l-4.7-95.9c-.3-2.6.5-15.7.5-15.7M435.7 149.2c0-.2.1-.3.2-.4.7-1.5 1.6-3 1.4-4.7-.2-1.2-1-2.2-1.9-3-1.1-.9-1.6-1.7-1.9-3.2-.2-1.3-.2-2.6-.8-3.7-.4-.8-1.2-1.4-1.9-1.9-2-1.4-4.4-2.3-6.8-2.3-1.3 0-2.3.5-3.5.7-.7.1-1.1-.2-1.9-.3-.7-.1-1.3-.2-2-.3q-2.4 0-4.5.9c-3 1.3-7 4.2-7.8 7.6-.3 1.2-.2 2.5-.6 3.6-.9 2.3-3.6 2.7-5.2 4.3-1 1-1.7 2.5-1.3 3.9.2.8.7 1.5.8 2.3s-.2 1.5-.5 2.2c-.9 1.7-2.3 3.4-2.2 5.3 0 .8.4 1.6.7 2.3 4.7 8.9 16.9 9.9 25.7 8.7 5.3-.7 11-2.3 15.2-5.7 1.7-1.4 3.2-3.2 3.6-5.3.6-3.8-2.4-7-4.4-9.9-.2-.3-.4-.5-.4-.9-.1 0-.1-.1 0-.2" class="st17"/><path d="M427.7 147.4h.6c1.4.1 2.5 1.3 2.5 2.8l-.2 2.6c-.1 1.4-1.3 2.5-2.8 2.5l-1.1-.1h-.2l-1.3 17.4c-.8 3.7-3.8 6.3-6.9 5.8-3.4-.5-5.6-4.2-4.9-8.3l.1-3.6c-4.7-.3-10-4.7-9.4-10.6l1.2-11.8q.15-.9.6-1.8c4.6 4 7.7-2.2 10.5-2.5 6.3-.6 9.2 1.7 10.5 7.3.1.8.8.3.8.3" class="st29"/><path d="m421.9 166.8-8.4.1-.1 3z" style="opacity:.37;fill:#ef929c"/><path d="M415.6 134.3c-.8.9-1.2 2.3-1 3.5.4 3.3 4.2 3.7 6.4 5.5 1 .8 1.7 2 1.6 3.2-.1 2.2-2.5 3.8-2.8 6-.3 1.8 1.4 2.8 1.7 4.4.3 1.3-.5 2.5-1.2 3.6-.8 1.2-1.9 2-1.8 3.6.1 1.2.9 2.2 1.8 2.8 1 .6 2.1.9 3.3 1 2.2.2 4.4 0 6.6-.4 3.9-.8 8.2-3.5 10-7.1 2.2-4.4-5.4-9.7-4.7-11.3.7-1.5 3.4-5.2-.4-8.2-3.4-2.7.5-3.7-3.9-8.4-1.8-1.9-8.4-6.3-15.6 1.8M408.9 148.9c-.2.1-.4 0-.7 0-.2 0-.5-.1-.7-.1h-.7c-.2 0-.5 0-.7-.1s-.2-.4 0-.7.8-.6 1.5-.6c.7.1 1.2.5 1.4.8.1.4.1.7-.1.7" class="st17"/><path d="M417.2 149.5c-.2.1-.4 0-.7 0-.2 0-.5-.1-.7-.1h-.7c-.2 0-.5 0-.7-.1s-.2-.4 0-.7.8-.6 1.5-.6c.7.1 1.2.5 1.4.8s.1.6-.1.7M407 152.4c-.3 0-.5-.3-.5-.6l.1-1.1c0-.3.3-.5.6-.5s.5.3.5.6l-.1 1.1c-.1.3-.3.5-.6.5M415.1 153.2c-.3 0-.5-.3-.5-.6l.1-1.1c0-.3.3-.5.6-.5s.5.3.5.6l-.1 1.1c0 .3-.3.5-.6.5" class="st17"/><path d="m411.2 150.6-1.6 2.4c-.5.8.1 1.9 1 1.9l.9.1" style="fill:none;stroke:#ef929c;stroke-width:.5;stroke-linecap:round;stroke-miterlimit:10"/><path d="m414.6 159.8-2.1-.1c-.5 0-.9-.5-.8-1l.1-2.1 5 .3-.1 1c0 1.1-1 2-2.1 1.9" class="st17"/><path d="M414.6 159.8h-.1c-.5 0-.9-.6-.8-1 .1-1.1 3.1-.9 3.1-.9-.1 1.1-1.1 2-2.2 1.9" class="st5"/></g></svg>