<svg xmlns="http://www.w3.org/2000/svg" xml:space="preserve" id="Layer_1" x="0" y="0" version="1.1" viewBox="0 0 200 200"><style>.st14{fill:#030303}.st16{fill:#020203}.st17{fill:#020202}</style><path d="M0 0h200v200H0z" style="fill:#97c3f0"/><g id="gCInMW.tif"><path d="M110.6 31.8c1.4.8 2 2.1 1.9 3.7-.1.9 0 1.7 0 2.6-.1 1.7-1.2 2.6-2.8 2.7h-3.1c-.6 0-.8.2-.8.8v.1c-.1 3.4-.1 3.5 3.2 3.4 1.4 0 2.1.5 2.2 1.8 0 3.2 1.6 5 4.6 5.8 1.4.4 2.8 1.5 4.1 1.5 1.4 0 2.5-1.4 3.8-2.3 1-.7 1.8-.6 2.6.3 3.5 3.6 7 7.1 10.6 10.6.8.8 1 1.6.2 2.5-.1.1-.1.2-.1.2-2.4 2.3-2 4.6-.8 7.5s2.6 5 6 4.9c1.3 0 1.7.8 1.7 2.1-.1 4.9 0 9.9 0 14.8 0 1.3-.5 2-1.8 2-3.3 0-4.7 1.9-6 4.8-1.3 3-1.4 5.3.8 7.8.7.7 1.1 1.1 2.1 1 4-.2 7.3 2.1 8.1 5.6.5 2.1-.2 3.9-1.5 5.6-1 1.2-2.2 2.2-3.6 2.8-13.7 6.4-27.4 12.8-41.1 19.3-5 2.3-10.2 3.3-15.7 3-4.2-.2-8.5-.4-12.7.5-5.3 1.1-9.4 4.2-13.3 7.8-.3.3-.2.6-.1 1 .7 2.4 0 4.2-1.8 5.8-1.8 1.5-3.5 3.1-5.2 4.6-2.6 2.3-5.5 2.1-7.8-.5-6.2-7.1-12.5-14.3-18.7-21.4-.7-.8-1.2-1.8-1.8-2.7v-2.4c.9-2.3 2.9-3.6 4.7-5.1.9-.8 1.9-1.7 2.9-2.5 1.8-1.5 3.7-1.9 5.8-.8.7.3 1.1.1 1.6-.2 6.5-3.8 12.6-8.2 18.2-13.2 2.5-2.2 5.1-4.3 8.2-5.7.2-.1.5-.3.5-.4-.1-2.1 1.7-3.3 2.6-4.9.3-.5.3-.9.1-1.4-.9-2.2-1.8-4.3-2.7-6.5-.2-.6-.5-.9-1.1-.9-1.2-.2-2.4-.5-3.6-.7-1-.2-1.5-.7-1.5-1.7V79.9c0-.9.4-1.5 1.3-1.6.3 0 .5-.2.8-.2 3 .1 4.3-1.7 5.4-4.3 1.4-3.2 1.8-5.7-.8-8.4-.7-.7-.5-1.5.2-2.3l10.8-10.8c.8-.8 1.5-.9 2.4-.2 0 0 .1 0 .1.1 1.3.8 2.4 2.2 3.8 2.3 1.4 0 2.7-1.2 4.1-1.5 3.1-.7 4.6-2.6 4.6-5.8 0-1.3.8-1.8 2.2-1.8 3.3 0 3.3 0 3.3-3.3 0-.9-.2-1.1-1.1-1s-1.9 0-2.9 0c-1.7-.1-2.7-1-2.8-2.7-.1-1.2 0-2.4 0-3.5 0-1.3.9-2.1 1.9-2.8 5.9-.3 11.8-.3 17.8-.3"/><path d="M100.6 113.2c-1.8-.6-3.6-1.2-5.6-1-3.6.4-6.5-1.2-9.2-3.3-8.8-6.6-12.7-17.6-9.9-28.1C78.6 70.2 87.5 62.3 98.4 61c16.2-1.9 28.5 10.3 29.8 24.2 1.4 14.6-10.5 28.4-25.1 28.8-.6 0-1.2.2-1.7-.4-.1-.1-.1-.2 0-.4 1.1-.6 1.4-1.6 1.2-2.8-.1-.7-.2-1.5-1.1-1.5-.8 0-.9.7-1 1.4 0 .8 0 1.5.1 2.3.1.4.1.5 0 .6" style="fill:#e8e8fe"/><path d="m53.2 148.6-13.5-15.3c4.7-2.9 9.2-5.8 13.5-9.1 3.2-2.6 6.2-5.4 9.6-7.8 3.7-2.7 7.7-3.7 12.3-3 6.7 1.1 13.4 1.3 20.2 1.5 1.6 0 3.2.2 4.5 1.2 1.4 2.3.8 5-1.5 6.4-1.6 1-3.3 1.5-5.1 1.8-4.6.7-9.2.8-13.8.4-1.5-.1-3 0-4.5-.1-1-.1-1.8.4-2 1.4-.3 1 .2 1.7 1.1 2.1.3.1.6.3.8.5.2.7.6 1.1 1.3 1.2 7.1.4 14.1 1.1 21.1-.6 2.8-.7 5.3-1.8 7-4.3.3-.4.7-.5 1.2-.6 10.5-2.4 20.7-5.8 30.6-10 2.2-.9 4.3-1.4 6.5-.2.5.3.9.6 1.2 1.1.4.8.1 1.5-.5 2.1-.9 1-1.9 1.8-3.2 2.3-12.3 5.6-24.6 11.4-36.9 17-3.2 1.5-6.3 3.1-9.7 3.8-2.5.5-4.9.6-7.4.4-6.4-.4-12.8-.9-19.2.6-4.5 1.1-8.3 3.4-11.8 6.5-.6.3-.9 1.1-1.8.7" style="fill:#fcd6ac"/><path d="M67.7 96.3c-.4-1.1-1.5-1.1-2.4-1.3-.6-.1-1.1-.2-1.7-.4-.5-.5-.4-1.1-.4-1.7v-11c0-.6 0-1.2.4-1.7.8-.2 1.6-.4 2.5-.5.8-.1 1.3-.5 1.7-1.1 1.1-.6 1.6-1.5 2-2.6.8-2 1.5-4 2.4-5.9.4-.9.4-1.6-.3-2.4-.6-.8-1.2-1.6-1.7-2.4-.5-.7-.5-1.3.1-1.9l7.8-7.8c.3-.3.7-.7 1.3-.4.1.1.3.1.4.2 2.2 2.2 4.5 2 7.1.6 1.8-1 3.7-1.6 5.6-2.4 1-.4 1.5-1 1.6-2 0-.3.1-.6.2-.9.6-2.8.6-2.8 3.5-2.8h9.7c.9 0 1.4.1 1.4 1.1 0 3.3 1.8 4.9 4.8 5.7 1.8.5 3.6 1.3 5.3 2.2 1.1.5 2 .4 3-.3.6-.5 1.4-.9 2-1.4s1.1-.5 1.7.1c2.7 2.8 5.5 5.6 8.3 8.3.6.6.8 1.1.2 1.7-2.2 2.3-2.3 4.7-.7 7.4 1 1.7 1.6 3.7 2.4 5.6.3.8.8 1.4 1.8 1.4.2 0 .4.1.7.1 3.2.7 3.2.7 3.2 4v9.3c0 .9-.2 1.4-1.1 1.4-3.3 0-4.9 1.7-5.7 4.7-.5 1.8-1.4 3.5-2.2 5.3-.5 1.1-.5 2.1.3 3l.6.9c.4.7 1.4 1.4 1.1 2.1-.4 1-1.3 1.9-2.4 2.3-8.4 3.3-16.9 6.2-25.7 8.3-.7.2-1 .1-.9-.7.1-1.3-.3-2.5-.9-3.8 9-1.1 16.1-5.2 21.3-12.5 3.8-5.4 5.6-11.5 5.3-18.1-.6-13.2-10.1-24.5-22.8-27.4-13-2.9-26.4 3.3-32.5 15.1s-3.9 28 9.2 37.7c-4.9-.5-9.5-.9-14.1-1.4-.5-.5-.6-.5-.2-1 .5-.8 1.1-1.5 1.6-2.3.4-.5.4-1 .2-1.6-1-2.4-2-4.7-2.9-7.1-.8-.8-1.5-1.1-2.1-1.7" style="fill:#f8ab00"/><path d="M53.2 148.6c1.6-.9 2.8-2.4 4.3-3.4 4.4-3.1 9.2-4.7 14.5-5.1 1.9-.1 3.9-.4 5.8-.2 3 .3 6 .2 9.1.4 4.1.3 8.1-.6 11.8-2.3 10.9-5 21.8-10.1 32.8-15.1 3-1.4 6-2.6 8.9-4.1 1.6-.8 3.1-1.7 3.2-3.8 1.3 1.6 1.4 3 .3 4.6-.8 1.3-2 2-3.4 2.7-13.8 6.5-27.7 12.9-41.5 19.4-4 1.8-8.1 2.6-12.5 2.4-4.6-.2-9.1-.4-13.7.3-5.5.9-10 3.8-14.1 7.5-1.5 1.3-1.5 1.4-2.8-.2-.9-1-1.8-2.1-2.7-3.1" style="fill:#e5b07c"/><path d="M42.5 159.5c-5.1-5.8-10.2-11.6-15.2-17.4-1.1-1.2-.9-2.4.2-3.5 1.9-1.7 3.8-3.4 5.7-5 1.1-1 2.4-.9 3.4.1 4.9 5.6 9.8 11.3 14.7 16.9.2.6-.3.9-.6 1.2-2.3 2.3-4.6 4.7-7 7-.3.5-.6 1-1.2.7" style="fill:#2a91f9"/><path d="M42.5 159.5c3.1-2.8 6-5.8 8.8-8.8 1.6 1.8 3.2 3.5 4.8 5.4 1 1.2.9 2.3-.3 3.4-1.9 1.7-3.8 3.4-5.8 5.1-1.2 1-2.4.9-3.4-.2-1.4-1.6-2.7-3.2-4.1-4.9" style="fill:#0e81f4"/><path d="M74.7 128.5c-1.7-.2-2.5-1.1-2.4-2.5.2-1.4 1.4-2.1 3-2 4.9.2 9.7.7 14.6.2 1.9-.2 3.8-.4 5.6-.9 4.3-1.4 5.2-2.8 4.3-7.2 3.7 2.1 3.9 6.8.2 9-2.3 1.4-5 1.8-7.6 2.1-5.2.6-10.4.2-15.6-.1-1.2-.2-2 .1-2.1 1.4" style="fill:#e5b07b"/><path d="M101.7 38.1h-6.9c-.9 0-1.2-.3-1.2-1.2 0-2.4 0-2.4 2.4-2.4h12.6c1 0 1.3.2 1.3 1.3-.1 2.3 0 2.3-2.3 2.3z" style="fill:#5d689d"/><path d="M79.4 55.2c-.5 0-.8.4-1.1.7-2.6 2.6-5.1 5.2-7.7 7.7-.6.6-.6 1-.1 1.6.4.5.7 1.2 1.2 1.7 1.6 1.4 1.3 2.9.4 4.6s-1.5 3.6-2.2 5.4c-.4 1-.9 1.9-2.1 1.9 1.1-2.8 2.2-5.5 3.4-8.3.5-1.1.5-2-.3-3-.7-.9-1.8-2-1.7-2.9s1.4-1.7 2.3-2.6c2.2-2.2 4.4-4.4 6.5-6.6.4-.7.8-.9 1.4-.2" style="fill:#f59a00"/><path d="M63.6 80.3v14.3c-1.1 0-1.5-.4-1.5-1.6q.15-5.55 0-11.1c0-1.1.3-1.7 1.5-1.6" style="fill:#f79a00"/><path d="M67.7 96.3c1.2.1 1.7.9 2.1 2 .9 2.3 1.9 4.7 2.9 7 .3.6.3 1.1-.1 1.6-.7.9-1.2 1.8-1.9 2.6-.2.3-.4.5 0 .8-.5.2-1 .2-1.7.2.5-1.2 1.3-2.1 1.9-3.1.6-.8.7-1.6.3-2.5-1.2-2.9-2.3-5.7-3.5-8.6" style="fill:#f59900"/><path d="M103 42.9v.4c0 2.1 0 2.1-2 1.9-.6 0-.7-.3-.7-.8 0-.7.1-1.4 0-2-.2-1.2.3-1.5 1.5-1.6 2.1-.1.9 1.4 1.2 2.1" style="fill:#a2a2cb"/><path d="M101.4 113.5v.2c-.3-.2-.6-.3-.8-.5v-.2c.4-.2.8-.1.8.5" style="fill:#c5c5d8"/><path d="M100.3 78v-4.8c0-.9.3-1.7 1.4-1.6 1 0 1.4.7 1.4 1.7v9.2c0 .7.1 1.1.8 1.5 1.7 1 2.3 2.8 1.8 4.6s-2.1 3-3.9 3-3.4-1.2-3.9-3c-.5-1.7.2-3.6 1.8-4.6.7-.4.8-.8.8-1.5-.2-1.5-.2-3-.2-4.5"/><path d="M90.3 69.3c-1.1 0-2.7-2.8-2.2-3.8.4-.8 1.5-1 2.1-.4.7.7 1.2 1.6 1.5 2.6.2.8-.5 1.7-1.4 1.6" class="st14"/><path d="M115.3 66.4c-.4.9-.8 1.9-1.7 2.7-.4.4-.9.3-1.4 0s-.8-.8-.6-1.4c.3-.9.8-1.8 1.5-2.6.3-.4.9-.5 1.4-.2s.8.7.8 1.5" style="fill:#030304"/><path d="M121.4 77.5c-.7 0-1.2-.2-1.4-.7-.3-.5-.3-1.1.2-1.5.7-.7 1.6-1.2 2.6-1.5.6-.2 1.1.1 1.4.6s.4 1 0 1.4c-.9.9-2 1.4-2.8 1.7M112.8 105.6c.5 0 .9.2 1.1.6.4.7.8 1.3 1.1 2s.1 1.3-.5 1.7-1.3.4-1.7-.2c-.5-.7-1-1.5-1.3-2.3-.2-.9.5-1.8 1.3-1.8" class="st14"/><path d="M79 75.4c0-1 .4-1.4 1.1-1.6s3.1 1.2 3.3 1.9.1 1.3-.6 1.7-1.3.1-1.9-.3c-.7-.5-1.8-.7-1.9-1.7" class="st16"/><path d="M103 63.9v.8c0 .9-.5 1.5-1.3 1.5-.9 0-1.4-.6-1.4-1.5v-1.6c0-1 .4-1.6 1.4-1.6.9 0 1.3.7 1.3 1.6zM90.5 105.6c.6.1 1.1.4 1.2 1.1s-1.2 3-1.9 3.2-1.3 0-1.6-.6c-.6-.9 1.1-3.7 2.3-3.7" class="st17"/><path d="M101.4 113.5c-.3-.2-.5-.4-.8-.6-.5-1-.3-2.1-.2-3.2 0-.6.5-1 1-1.1s1 .1 1.3.5c1 1.2.2 3.9-1.3 4.4" class="st16"/><path d="M81.9 97.4c.8 0 1.2.2 1.5.8.2.6.1 1.2-.4 1.6q-1.05.75-2.1 1.2c-.7.3-1.4.1-1.7-.6-.3-.6-.2-1.3.4-1.7.8-.5 1.5-1.1 2.3-1.3" style="fill:#010102"/><path d="M121.2 97.4c1.4.2 3.2 1.7 3 2.6-.2.8-.7 1.2-1.6 1.1-1.3-.2-3-1.6-2.8-2.5.1-.9.7-1.3 1.4-1.2" class="st17"/><path d="M77.9 88.8c-.7-.1-2.1.3-2.1-1.3s1.4-1.3 2.4-1.4h.9c.8.1 1.3.5 1.3 1.4 0 .8-.5 1.2-1.3 1.3zM125.1 88.8H124q-1.05-.15-1.2-1.2c0-.7.3-1.2 1-1.4q1.35-.3 2.7 0c.7.2 1.1.7 1 1.4q-.15 1.05-1.2 1.2z" class="st14"/><path d="M101.6 86.1c.8.1 1.4.5 1.4 1.4 0 .8-.5 1.3-1.3 1.3-.9 0-1.4-.4-1.4-1.3s.5-1.3 1.3-1.4" style="fill:#f2a700"/></g></svg>